<!--<svg width="224" height="216" xmlns="http://www.w3.org/2000/svg" xmlns:xlink="http://www.w3.org/1999/xlink"-->
<!--     xml:space="preserve" overflow="hidden">-->
<!--    <g transform="translate(-2507 -1104)"><g><g><g><g>-->
<!--        <path d="M84.5954 1.29131 93.365 3.46673 101.741 6.97034C107.194 9.7488 112.385 13.4127 117.313 17.9621 127.17 27.0609 135.979 39.7015 143.738 55.8839 151.664 73.1504 156.599 87.1514 158.543 97.8867 159.698 104.109 160.355 110.136 160.515 115.967 161.216 119.127 160.336 127.433 157.873 140.885 151.678 162.824 139.618 178.71 121.692 188.545 115.447 193.052 102.565 197.346 83.0446 201.426 73.0095 203.239 61.7314 202.81 49.2104 200.139 34.5906 196.844 19.2737 190.107 3.25975 179.928-11.1618 169.616-22.6229 158.928-31.1234 147.865-39.6241 136.802-45.1645 125.364-47.7447 113.551-50.4609 101.536-50.6956 89.9486-48.449 78.7903-46.0467 67.5127-40.8517 56.4252-32.864 45.5278-24.5363 33.4204-14.0959 23.9231-1.54278 17.0358 10.1749 10.1795 24.5579 5.41824 41.6063 2.75201 43.1447 2.41618 49.7588 1.60598 61.4488 0.321408L66.2412 0.128124C75.3669 0.271825 81.485 0.659553 84.5954 1.29131M85.6751-3.20482 83.0034-3.59734C80.3649-4.09992 75.7457-4.20384 69.1458-3.9091L39.1073-1.14824 29.1017 0.689651C16.0527 3.5954 4.17063 8.32216-6.54434 14.8699-11.8686 18.1128-16.9676 21.8729-21.8412 26.1502-25.5683 28.8712-32.3706 37.3819-42.2481 51.6823-49.1283 63.2038-53.0892 74.9573-54.1306 86.9427-54.8495 98.9075-53.2941 111.145-49.4645 123.656-45.245 135.815-37.9716 147.545-27.6446 158.845-15.4829 171.504-3.93664 181.014 6.99423 187.377 23.3129 196.978 38.9604 203.041 53.9366 205.565 65.6377 207.537 76.9291 207.35 87.8107 205.002 97.9544 202.777 105.033 200.849 109.048 199.218L116.83 196.011C121.84 193.694 126.492 191.019 130.785 187.986 148.419 176.045 159.438 157.94 163.844 133.672 165.139 119.085 165.289 110.094 164.295 106.697 163.612 100.404 162.407 93.9108 160.679 87.2182L153.445 67.0388C149.677 57.6897 145.632 49.2618 141.307 41.7553L134.613 31.1864C130.01 24.6012 125.129 18.9373 119.97 14.1948 109.652 4.70961 98.2202-1.09025 85.6751-3.20482Z"-->
<!--              stroke="#384B7C" fill-rule="nonzero" fill-opacity="1" fill="#ffffff"-->
<!--              transform="matrix(1 0 0 1.00028 2563.21 1111.39)"/></g></g></g></g></g></svg>-->

<svg class="dynamic-circle-svg" width="224" height="216" xmlns="http://www.w3.org/2000/svg"
     xmlns:xlink="http://www.w3.org/1999/xlink"
     xml:space="preserve" overflow="hidden">
    <g transform="translate(-2507 -1104)">
        <g>
            <g>
                <g>
                    <g>
                        <path class="svg-path"
                              d="M84.5954 1.29131 93.365 3.46673 101.741 6.97034C107.194 9.7488 112.385 13.4127 117.313 17.9621 127.17 27.0609 135.979 39.7015 143.738 55.8839 151.664 73.1504 156.599 87.1514 158.543 97.8867 159.698 104.109 160.355 110.136 160.515 115.967 161.216 119.127 160.336 127.433 157.873 140.885 151.678 162.824 139.618 178.71 121.692 188.545 115.447 193.052 102.565 197.346 83.0446 201.426 73.0095 203.239 61.7314 202.81 49.2104 200.139 34.5906 196.844 19.2737 190.107 3.25975 179.928-11.1618 169.616-22.6229 158.928-31.1234 147.865-39.6241 136.802-45.1645 125.364-47.7447 113.551-50.4609 101.536-50.6956 89.9486-48.449 78.7903-46.0467 67.5127-40.8517 56.4252-32.864 45.5278-24.5363 33.4204-14.0959 23.9231-1.54278 17.0358 10.1749 10.1795 24.5579 5.41824 41.6063 2.75201 43.1447 2.41618 49.7588 1.60598 61.4488 0.321408L66.2412 0.128124C75.3669 0.271825 81.485 0.659553 84.5954 1.29131Z"
                              stroke="transparent" stroke-width="4" fill="#FCF1EC"
                              transform="matrix(1 0 0 1.00028 2563.21 1111.39)"/>
                    </g>
                </g>
            </g>
        </g>
    </g>
</svg>
