<?xml version="1.0" encoding="UTF-8" standalone="no"?>
<svg
        width="224"
        height="216"
        xml:space="preserve"
        overflow="hidden"
        version="1.1"
        id="svg5"
        sodipodi:docname="circle_updated.svg"
        inkscape:version="1.4 (e7c3feb1, 2024-10-09)"
        xmlns:inkscape="http://www.inkscape.org/namespaces/inkscape"
        xmlns:sodipodi="http://sodipodi.sourceforge.net/DTD/sodipodi-0.dtd"
        xmlns:xlink="http://www.w3.org/1999/xlink"
        xmlns="http://www.w3.org/2000/svg"
        xmlns:svg="http://www.w3.org/2000/svg"><defs
     id="defs5"><linearGradient
       id="swatch1"
       inkscape:swatch="solid"><stop
         style="stop-color:#ffffff;stop-opacity:0.99425286;"
         offset="0"
         id="stop1" /></linearGradient><linearGradient
        inkscape:collect="always"
        xlink:href="#swatch1"
        id="linearGradient1"
        x1="7.0916287"
        y1="108.61704"
        x2="216.09642"
        y2="108.61704"
        gradientUnits="userSpaceOnUse"/></defs>
    <sodipodi:namedview
            id="namedview5"
            pagecolor="#ffffff"
            bordercolor="#000000"
            borderopacity="0.25"
            inkscape:showpageshadow="2"
            inkscape:pageopacity="0.0"
            inkscape:pagecheckerboard="0"
            inkscape:deskcolor="#d1d1d1"
            inkscape:zoom="2.6379446"
            inkscape:cx="81.69239"
            inkscape:cy="92.875339"
            inkscape:window-width="1424"
            inkscape:window-height="803"
            inkscape:window-x="0"
            inkscape:window-y="38"
            inkscape:window-maximized="0"
            inkscape:current-layer="svg5"/>
    <path
            style="opacity:0.373737;fill:#00237b;fill-opacity:1;stroke-width:4.10834646;stroke-dasharray:none;stroke:url(#linearGradient1);stroke-linecap:butt"
            d="M 109.75467,207.93811 C 94.893483,205.1186 75.637486,197.11217 61.598298,187.91523 52.961029,182.25704 37.307135,168.83397 31.350086,161.97767 14.864181,143.00313 7.1005066,123.82757 7.0916376,102.06156 7.0846471,84.905931 11.192815,72.062119 21.737202,56.273543 37.095685,33.276607 60.025666,18.318163 89.137056,12.30504 111.27975,7.7313417 133.25319,6.9947471 145.80223,10.405508 c 21.21073,5.764963 38.60227,22.812664 52.59488,51.555067 14.86214,30.528544 19.82341,52.575375 16.89778,75.090175 -3.10257,23.87643 -14.97135,43.65945 -33.52778,55.88447 -8.977,5.91408 -14.60532,8.26983 -29.20195,12.22258 -10.34186,2.80056 -14.36396,3.42028 -24.16513,3.72336 -7.59403,0.23483 -14.19734,-0.0991 -18.64536,-0.94305 z"
            id="path42"/></svg>
