<svg class="dynamic-circle-svg" width="224" height="216" xmlns="http://www.w3.org/2000/svg"
     xmlns:xlink="http://www.w3.org/1999/xlink"
     xml:space="preserve" overflow="hidden">
    <g transform="translate(-2507 -1104)">
        <g>
            <g>
                <g>
                    <g>
                        <path d="M84.5954 1.29131 93.365 3.46673 101.741 6.97034C107.194 9.7488 112.385 13.4127 117.313 17.9621 127.17 27.0609 135.979 39.7015 143.738 55.8839 151.664 73.1504 156.599 87.1514 158.543 97.8867 159.698 104.109 160.355 110.136 160.515 115.967 161.216 119.127 160.336 127.433 157.873 140.885 151.678 162.824 139.618 178.71 121.692 188.545 115.447 193.052 102.565 197.346 83.0446 201.426 73.0095 203.239 61.7314 202.81 49.2104 200.139 34.5906 196.844 19.2737 190.107 3.25975 179.928-11.1618 169.616-22.6229 158.928-31.1234 147.865-39.6241 136.802-45.1645 125.364-47.7447 113.551-50.4609 101.536-50.6956 89.9486-48.449 78.7903-46.0467 67.5127-40.8517 56.4252-32.864 45.5278-24.5363 33.4204-14.0959 23.9231-1.54278 17.0358 10.1749 10.1795 24.5579 5.41824 41.6063 2.75201 43.1447 2.41618 49.7588 1.60598 61.4488 0.321408L66.2412 0.128124C75.3669 0.271825 81.485 0.659553 84.5954 1.29131Z"
                              stroke="transparent" stroke-width="4" fill="#e5b6bb"
                              transform="matrix(1 0 0 1.00028 2563.21 1111.39)"/>
                    </g>
                </g>
            </g>
        </g>
    </g>
</svg>
